<?xml version="1.0" encoding="utf-8"?>
<!-- Generator: Adobe Illustrator 25.3.1, SVG Export Plug-In . SVG Version: 6.00 Build 0)  -->
<svg version="1.1" xmlns="http://www.w3.org/2000/svg" xmlns:xlink="http://www.w3.org/1999/xlink" x="0px" y="0px"
	 viewBox="0 0 56 49" style="enable-background:new 0 0 56 49;" xml:space="preserve">
<style type="text/css">
	.st0{display:none;}
	.st1{display:inline;fill:#FFD600;fill-opacity:0.78;}
	.st2{display:inline;fill:url(#SVGID_1_);}
	.st3{fill:none;}
	.st4{fill:#E68326;}
	.st5{fill:#FFCA04;}
	.st6{fill:#A0C531;}
	.st7{fill:#AF3B8D;}
	.st8{fill:#75BFC7;}
	.st9{fill:#AE2220;}
	.st10{fill:#1A1E3A;}
	.st11{fill:#0D7D36;}
	.st12{fill:#153E22;}
	.st13{fill:#0C5126;}
	.st14{fill:#242B58;}
	.st15{fill:#0396A1;}
</style>
<g id="Calque_1" class="st0">
	<path class="st1" d="M27.9,21.5c3.8,0,6.8-3,6.8-6.8c0-3.8-3-6.8-6.8-6.8c-3.8,0-6.8,3-6.8,6.8C21.1,18.4,24.2,21.5,27.9,21.5z"/>
	
		<linearGradient id="SVGID_1_" gradientUnits="userSpaceOnUse" x1="22.2748" y1="52.4066" x2="49.3908" y2="12.3583" gradientTransform="matrix(1 0 0 -1 0 49.8898)">
		<stop  offset="0" style="stop-color:#EF1262"/>
		<stop  offset="1" style="stop-color:#4361EE"/>
	</linearGradient>
	<path class="st2" d="M55.4,3.8L30.1,47.7c-1,1.7-3.4,1.7-4.4,0L0.4,3.8c-1.3-2.3,1.2-4.8,3.5-3.5l12.7,7.3c1.3,0.8,2,2.3,1.6,3.8
		c-0.4,1.3-0.5,2.7-0.3,4.2c0.6,4.6,4.3,8.3,9,8.8c6.1,0.7,11.3-4.1,11.3-10.1c0-0.9-0.1-1.8-0.4-2.7c-0.4-1.5,0.2-3.1,1.5-3.9
		L52,0.4C54.2-0.9,56.7,1.6,55.4,3.8z"/>
</g>
<g id="Calque_2">
	<g>
		<path class="st3" d="M30.4,23.1L30.4,23.1l-4-0.8c0,0,0,0,0,0l-0.8,3.9l4,0.8l0,0c0,0,0,0,0.1,0c0,0-0.1,0-0.1,0L30.4,23.1z"/>
		<path class="st3" d="M17.3,27.6C17.3,27.6,17.3,27.6,17.3,27.6C17.3,27.6,17.3,27.6,17.3,27.6L17.3,27.6z"/>
		<polygon class="st3" points="40.3,16.5 40.3,16.5 40.3,16.5 		"/>
		<path class="st3" d="M31.6,16.1c0.1,0,0.2-0.1,0.2-0.1C31.8,16,31.7,16.1,31.6,16.1z"/>
		<path class="st3" d="M30.5,23.1C30.5,23.1,30.4,23.1,30.5,23.1L30.5,23.1z"/>
		<polygon class="st3" points="18,24.9 18,24.9 18,24.9 		"/>
		<path class="st3" d="M25.6,26.2C25.7,26.2,25.7,26.2,25.6,26.2l-1.3,7c0,0,0,0,0,0C25.1,29.6,25.7,26.2,25.6,26.2
			C25.7,26.2,25.7,26.2,25.6,26.2z"/>
		<path class="st4" d="M54.7,10.8c0.2-0.9,0.4-1.8,0.5-2.7c0.2-1,0.4-2,0.6-2.9c0-0.1,0-0.1,0-0.2c0.1-1-0.2-1.9-0.8-2.8
			C55,2.1,55,2.1,54.9,1.9c0,0-0.1-0.1-0.1-0.1c-0.9-1-2.1-1.5-3.5-1.4C50,0.6,49,1.2,48.2,2.2c0,0.1-0.1,0.1-0.1,0.2
			c-0.4,0.6-0.5,1.3-0.7,2c-0.2,0.9-0.4,1.8-0.5,2.6c0,0.1,0,0.1,0,0.2c0,0.1,0,0.2-0.1,0.3c-0.6,3.1-1.3,6.3-1.9,9.4
			c0,0.1,0,0.3-0.1,0.4c0,0,0,0,0,0C46.2,17.7,53.1,18.1,54.7,10.8z"/>
		<path class="st5" d="M11.4,31.9C11.4,31.9,11.4,31.9,11.4,31.9c-1.3-0.2-8.3-0.7-9.9,6.7c-0.1,0.7-0.3,1.3-0.4,2
			c0,0.1-0.1,0.3-0.1,0.4c-0.2,1.1-0.4,2.2-0.7,3.3c0,0.2,0,0.3,0,0.5c0,1.1,0.4,2,1.1,2.9c0.1,0.1,0.1,0.1,0.1,0.1
			c0.6,0.5,1.2,0.9,1.9,1c0.7,0.2,1.3,0.2,2,0l0,0c0.4-0.1,0.6-0.2,0.9-0.3c0,0,0.1,0,0.1,0c0,0,0,0,0,0c0,0,0.1,0,0.1-0.1
			c0.2-0.1,0.1-0.1,0.2-0.1c1.1-0.8,1.8-1.9,2-3.2c0.1-0.7,0.3-1.4,0.4-2.1c0-0.2,0-0.1,0-0.2c0.4-2.1,0.8-4.2,1.3-6.3
			c0.2-0.8,0.3-1.5,0.5-2.3c0-0.1,0-0.1,0-0.2C11.1,33.2,11.3,32.5,11.4,31.9C11.4,31.9,11.4,31.9,11.4,31.9
			C11.4,31.9,11.4,31.9,11.4,31.9z"/>
		<path class="st6" d="M25.7,26.2c0,0-0.7,3.3-1.4,7c3.4-1.1,4.8-4.2,5.3-6.2c0,0,0,0,0,0l0,0L25.7,26.2z"/>
		<path class="st7" d="M30.5,23.1L30.5,23.1L30.5,23.1L30.5,23.1l1.4-7.1c0,0,0,0,0,0c-0.1,0-0.2,0.1-0.2,0.1
			c-2.9,1.3-4.6,3.9-5.1,6.2L30.5,23.1C30.4,23.1,30.5,23.1,30.5,23.1z"/>
		<path class="st8" d="M26.5,22.3c-2.1-0.5-5.5-0.2-7.7,2.5c1.8,0.2,6.2,1.2,6.8,1.3c0,0,0.1,0,0.1,0L26.5,22.3z"/>
		<path class="st8" d="M29.7,27C29.7,27,29.7,27,29.7,27c2.4,0.4,5.6-0.4,7.8-2.8c-1.8-0.2-7-1.1-7-1.1L29.7,27z"/>
		<polygon class="st8" points="30.5,23.1 30.5,23.1 30.5,23.1 		"/>
		<path class="st9" d="M54.7,11c0-0.2,0-0.3,0-0.3c0,0,0,0,0,0c-1.6,7.3-8.5,6.9-9.9,6.6c0,0,0,0,0,0c0,0-0.9,5.7-6.7,6.8
			c0,0,0,0,0,0C51.2,23.9,54.3,12.9,54.7,11z"/>
		<path class="st10" d="M38.2,23.4C38.2,23.4,38.2,23.4,38.2,23.4c0.1-0.2,0.2-0.3,0.3-0.4c0,0,0-0.1,0.1-0.1
			c0.1-0.1,0.2-0.3,0.2-0.4c1-2.8,1.5-6,1.5-6c0,0,0,0,0,0c0,0-4.1-0.8-6.7-1c-0.6,0.1-1.2,0.3-1.7,0.5l-1.4,7.1l0,0l0,0l0,0l0,0
			c0,0,5.2,0.9,7,1.1c0,0,0,0,0,0C37.7,24,38,23.7,38.2,23.4z"/>
		<polygon class="st10" points="40.3,16.5 40.3,16.5 40.3,16.5 		"/>
		<path class="st10" d="M32,15.4L32,15.4c0.1,0,0.2,0,0.2,0C32.1,15.4,32.1,15.4,32,15.4z"/>
		<path class="st7" d="M38.8,22.5C38.8,22.5,38.8,22.5,38.8,22.5c-0.1,0.3-0.2,0.5-0.3,0.8c0,0.1,0,0.1-0.1,0.1
			c-0.1,0.3-0.2,0.5-0.3,0.8l0,0l0,0c0,0,0,0,0,0c5.8-1.1,6.7-6.8,6.7-6.8l-4.5-0.9l0,0l0,0l0,0C40.3,16.5,39.7,19.7,38.8,22.5z"/>
		<path class="st11" d="M38.5,22.9C38.5,23,38.5,23,38.5,22.9C38.5,23,38.5,23,38.5,22.9z"/>
		<path class="st11" d="M38.2,23.4C38.2,23.4,38.2,23.4,38.2,23.4C38.2,23.4,38.2,23.4,38.2,23.4z"/>
		<path class="st11" d="M38.1,24.3C38.1,24.3,38.1,24.3,38.1,24.3c-0.1,0-0.3,0-0.6,0c0,0,0,0,0,0s0,0,0,0c-2.2,2.4-5.4,3.2-7.8,2.8
			c0,0,0,0-0.1,0c0,0,0,0,0,0c-0.6,1.9-2,5-5.3,6.2c0,0,0,0,0,0l1.4-7c0,0,0,0-0.1,0c-0.6-0.1-5-1.1-6.8-1.3
			c-0.6,0.7-1.1,1.6-1.5,2.7c0,0,0,0,0,0c0,0,0,0,0,0c-0.4,1.3-0.9,2.7-1.4,5.1c0.1,0,3.2,0.6,5.8,0.9c-0.2,0-0.3-0.1-0.3-0.1
			c1.1,0,2.1-0.1,3-0.4l-0.1,0.7c0,0,0,0,0,0c0,0,0,0,0,0C27.9,33.9,34.4,32.6,38.1,24.3C38.1,24.3,38.1,24.3,38.1,24.3
			C38.1,24.3,38.1,24.3,38.1,24.3z"/>
		<path class="st11" d="M38.4,23.5c-0.1,0.3-0.2,0.5-0.3,0.8C38.2,24,38.3,23.7,38.4,23.5z"/>
		<path class="st11" d="M38.8,22.5c-0.1,0.3-0.2,0.6-0.3,0.8C38.6,23.1,38.7,22.8,38.8,22.5z"/>
		<path class="st12" d="M38.1,24.3c0.1-0.3,0.2-0.5,0.3-0.8c0,0,0-0.1,0.1-0.1c0.1-0.3,0.2-0.6,0.3-0.8c0,0,0,0,0,0
			c-0.1,0.1-0.2,0.3-0.2,0.4c0,0,0,0.1-0.1,0.1c-0.1,0.1-0.2,0.3-0.3,0.4c0,0,0,0,0,0c-0.2,0.3-0.4,0.6-0.7,0.8c0,0,0,0,0,0
			C37.8,24.3,38,24.3,38.1,24.3C38.1,24.3,38.1,24.3,38.1,24.3L38.1,24.3L38.1,24.3z"/>
		<path class="st6" d="M15.9,32.8c0.5-2.5,1-3.8,1.4-5.1l0-0.1c0-0.2,0.2-1.3,0.7-2.7l0,0c-4.8,1.7-6,4.7-6.6,7c0,0,0,0,0,0
			c0,0,0,0,0,0C13.9,32.4,15.8,32.8,15.9,32.8C15.9,32.8,15.9,32.8,15.9,32.8C15.9,32.8,15.9,32.8,15.9,32.8z"/>
		<polygon class="st11" points="18,24.9 18,24.9 18,24.9 		"/>
		<path class="st13" d="M24.3,33.2c-0.9,0.3-1.9,0.4-3,0.4c0,0,0.1,0,0.3,0.1c1,0.1,1.9,0.2,2.5,0.2L24.3,33.2z"/>
		<path class="st14" d="M18,24.9c-0.5,1.4-0.7,2.5-0.7,2.7c0,0,0,0,0,0c0,0,0,0,0,0c0.4-1.1,0.9-2,1.5-2.7c2.2-2.7,5.6-3.1,7.7-2.5
			c0,0,0,0,0,0c0.5-2.3,2.2-5,5.1-6.2c0.1,0,0.2-0.1,0.2-0.1c0,0,0,0,0,0c0.5-0.2,1.1-0.4,1.7-0.5c-0.5,0-1-0.1-1.3-0.1
			c-0.1,0-0.2,0-0.2,0C22.9,15.8,19.4,21.4,18,24.9C18,24.9,18,24.9,18,24.9C18,24.9,18,24.9,18,24.9z"/>
		<path class="st15" d="M33.6,15.5c2.7,0.2,6.7,1,6.7,1c0,0,0,0,0,0s0.1-0.2,0.1-0.6l0,0l0.2-1.1l0,0c0-0.2,0.1-0.3,0.1-0.5
			c0.1-1.4-0.1-3.6-3.4-4.2c-3.3-0.7-4.4,1.3-4.8,2.6c-0.2,0.7-0.5,2.7-0.5,2.7c0,0,0,0,0,0c0.1,0,0.2,0,0.2,0
			C32.6,15.4,33.1,15.5,33.6,15.5z"/>
		<path class="st15" d="M24.2,33.9c-0.6,0-1.5-0.1-2.5-0.2c-2.5-0.3-5.6-0.9-5.8-0.9c0,0,0,0,0,0s0,0,0,0c0,0.2-0.4,1.6-0.4,2.1
			c-0.1,1.4,0.1,3.6,3.4,4.2s4.4-1.3,4.8-2.6C23.9,35.9,24.1,34.1,24.2,33.9C24.2,33.9,24.2,33.9,24.2,33.9
			C24.2,33.9,24.2,33.9,24.2,33.9z"/>
		<path class="st8" d="M11.4,31.9C11.4,31.9,11.4,31.9,11.4,31.9c0.7-2.3,1.9-5.3,6.6-7C4.9,25.2,1.9,36.5,1.5,38.3
			c0,0.2,0,0.3,0,0.3c0,0,0,0,0,0C3.1,31.2,10.1,31.6,11.4,31.9z"/>
	</g>
</g>
</svg>
